<svg width="61" height="61" viewBox="0 0 61 61" fill="none" xmlns="http://www.w3.org/2000/svg">
<g clip-path="url(#clip0_78_9517)">
<path d="M30.8203 42.6597C20.1203 42.6597 11.4453 37.8522 11.4453 30.1597V17.6597H50.1953V30.1597C50.1953 36.6234 41.5203 42.6597 30.8203 42.6597Z" fill="#203442"/>
<path d="M57.9092 12.6486L34.3204 1.11486C33.0359 0.487317 31.6251 0.161133 30.1954 0.161133C28.7658 0.161133 27.355 0.487317 26.0704 1.11486L2.48169 12.6486C1.7802 12.9913 1.19192 13.5282 0.786821 14.1956C0.381724 14.863 0.176865 15.6327 0.196617 16.4132C0.216369 17.1936 0.4599 17.952 0.898237 18.598C1.33657 19.2441 1.95127 19.7506 2.66919 20.0574L5.82044 21.4099L26.4992 30.2586C27.6674 30.7584 28.9248 31.0161 30.1954 31.0161C31.4661 31.0161 32.7235 30.7584 33.8917 30.2586L54.5704 21.4099L57.7217 20.0624C58.441 19.7563 59.0571 19.2497 59.4965 18.6031C59.9358 17.9566 60.18 17.1973 60.1997 16.4158C60.2195 15.6343 60.0141 14.8636 59.6079 14.1957C59.2018 13.5277 58.6121 12.9907 57.9092 12.6486Z" fill="#4C5665"/>
<path d="M50.1959 47.6598C49.8644 47.6598 49.5464 47.5281 49.312 47.2937C49.0776 47.0592 48.9459 46.7413 48.9459 46.4098V24.361L31.3434 15.3348C31.0484 15.1833 30.8256 14.9208 30.7241 14.605C30.6226 14.2892 30.6507 13.9461 30.8022 13.651C30.9537 13.356 31.2162 13.1332 31.5319 13.0317C31.8477 12.9302 32.1909 12.9583 32.4859 13.1098L51.4459 22.8335V46.4098C51.4459 46.7413 51.3142 47.0592 51.0798 47.2937C50.8454 47.5281 50.5274 47.6598 50.1959 47.6598Z" fill="#ECF0F1"/>
<path d="M30.8203 17.6597C33.9269 17.6597 36.4453 15.9807 36.4453 13.9097C36.4453 11.8386 33.9269 10.1597 30.8203 10.1597C27.7137 10.1597 25.1953 11.8386 25.1953 13.9097C25.1953 15.9807 27.7137 17.6597 30.8203 17.6597Z" fill="#203442"/>
<path d="M50.1953 53.9097C52.9567 53.9097 55.1953 51.6711 55.1953 48.9097C55.1953 46.1482 52.9567 43.9097 50.1953 43.9097C47.4339 43.9097 45.1953 46.1482 45.1953 48.9097C45.1953 51.6711 47.4339 53.9097 50.1953 53.9097Z" fill="#FACE53"/>
</g>
<defs>
<clipPath id="clip0_78_9517">
<rect width="60" height="60" fill="white" transform="translate(0.195312 0.159668)"/>
</clipPath>
</defs>
</svg>
